<svg xmlns="http://www.w3.org/2000/svg" width="65" height="74.151" viewBox="0 0 65 74.151">
  <g id="Group_5" data-name="Group 5" transform="translate(-1168 -1029.001)">
    <path id="Path_32" data-name="Path 32" d="M32.277.025a.941.941,0,0,1,.582.046L64.549,31.6a1.157,1.157,0,0,1,.27,1.514c-.434.738-3.8,3.456-3.881,3.9-.045.159.082.228.153.334.68,1.013,3.406,2.932,3.806,3.794a1.157,1.157,0,0,1-.184,1.224L33.475,73.629a1.2,1.2,0,0,1-1.334.453L.45,42.553a1.157,1.157,0,0,1-.27-1.514c.434-.738,3.8-3.456,3.881-3.9.045-.159-.082-.228-.153-.334C3.227,35.793.5,33.875.1,33.012a1.157,1.157,0,0,1,.184-1.224L31.525.524a1.659,1.659,0,0,1,.752-.5m.159,2.281L2.134,32.574l30.43,30.267,30.3-30.267ZM5.256,38.508,2.134,41.579l30.3,30.267,30.43-30.267-3.263-3.1-.261.089-26.9,26.542Z" transform="translate(1168 1029)" fill="#2e2e2e"/>
    <path id="Path_33" data-name="Path 33" d="M76.878,54.195l23.032,23L77.026,100.083l-.8-.273L54.153,77.74l-.186-.54Zm0,2.272L56.274,77.2,77,97.933,97.6,77.2Z" transform="translate(1123.561 984.374)" fill="#2e2e2e"/>
    <path id="Path_34" data-name="Path 34" d="M121.142,108.926a1.533,1.533,0,0,1,.661-.036l12.724,12.534.426.8-13.331,13.329c-.5.03-.715-.257-1.051-.524-4.129-3.28-7.887-8.545-12.005-12.006l-.426-.8Zm.34,2.273-11.056,11.022,11.184,11.022,11.056-11.022Z" transform="translate(1078.953 939.352)" fill="#2e2e2e"/>
    <path id="Path_35" data-name="Path 35" d="M166.47,163.041a1.066,1.066,0,0,1,.582.046,20.483,20.483,0,0,1,2.814,2.669c.417.54.77.911.367,1.594-.111.188-2.9,2.981-3.092,3.092-.585.344-.8,0-1.247-.361a35.862,35.862,0,0,1-2.742-2.731c-.379-.645-.123-.989.27-1.514a18.144,18.144,0,0,1,3.047-2.795m.159,2.281-1.522,1.488,1.65,1.488,1.522-1.488Z" transform="translate(1033.807 894.764)" fill="#2e2e2e"/>
  </g>
</svg>
