<svg xmlns="http://www.w3.org/2000/svg" width="30" height="30" viewBox="0 0 30 30">
  <path id="Path_39" data-name="Path 39" d="M18,3a1.667,1.667,0,0,1,1.667,1.667v10A1.667,1.667,0,0,1,18,16.333H4.667A1.667,1.667,0,0,1,3,14.667v-10A1.667,1.667,0,0,1,4.667,3ZM31.333,3A1.667,1.667,0,0,1,33,4.667v10a1.667,1.667,0,0,1-1.667,1.667H24.667A1.667,1.667,0,0,1,23,14.667v-10A1.667,1.667,0,0,1,24.667,3Zm0,16.667A1.667,1.667,0,0,1,33,21.333v10A1.667,1.667,0,0,1,31.333,33H18a1.667,1.667,0,0,1-1.667-1.667v-10A1.667,1.667,0,0,1,18,19.667ZM3,21.333a1.667,1.667,0,0,1,1.667-1.667h6.667A1.667,1.667,0,0,1,13,21.333v10A1.667,1.667,0,0,1,11.333,33H4.667A1.667,1.667,0,0,1,3,31.333Z" transform="translate(-3 -3)" fill="#525253"/>
</svg>
