<svg xmlns="http://www.w3.org/2000/svg" width="30" height="30" viewBox="0 0 30 30">
  <path id="Path_36" data-name="Path 36" d="M17,2l6.438,6.438,1.592-1.59L23.181,5H29v5.818L27.151,8.969l-1.59,1.591L32,17l-6.438,6.439,1.589,1.589L29,23.181V29H23.181l1.847-1.849-1.589-1.59L17,32l-6.44-6.439-1.591,1.59L10.818,29H5V23.181l1.847,1.847,1.591-1.59L2,17l6.44-6.44L6.846,8.969,5,10.818V5h5.818L8.969,6.846,10.562,8.44Zm0,17.119-4.32,4.319L17,27.757l4.319-4.319Zm-6.44-6.438L6.243,17l4.316,4.317L14.879,17Zm12.878,0L19.122,17l4.317,4.318L27.757,17ZM17,6.243,12.683,10.56,17,14.878l4.316-4.319Z" transform="translate(-2 -2)" fill="#525253"/>
</svg>
