<svg xmlns="http://www.w3.org/2000/svg" width="65" height="63.962" viewBox="0 0 65 63.962">
  <path id="Path_31" data-name="Path 31" d="M54.586,38.475,65,43.813V58.329l-.3.326L54.256,63.879l-.7.083-10.53-5.1L33.1,63.831l-.8.118L21.917,58.865l-9.923,4.966-.809.131L.441,58.709,0,58.219.046,43.813,10.46,38.475l.094-13.642.441-.49,10.124-5.085L21.27,5.6,32.053.084,32.6,0,43.776,5.6l.1,13.556,10.5,5.486ZM41.214,5.911,32.457,1.72,23.832,5.911l8.743,4.464ZM31.747,23.756V11.884l-9-4.578V19.411ZM42.3,19.411V7.306l-9,4.578V23.756ZM30.66,25l-8.743-4.312-8.8,4.388,8.9,4.388c2.566-1.505,5.794-2.572,8.281-4.125.089-.055.435-.235.357-.339m21.261,0-8.768-4.29L34.386,25c-.078.1.268.284.357.339,2.487,1.553,5.716,2.62,8.281,4.125ZM21.194,42.846V30.973l-9-4.578V38.5Zm1.552,0,9-4.578V26.395l-9,4.578Zm19.555,0V30.973l-9-4.578V38.267ZM52.854,38.5V26.395l-9,4.578V42.846ZM20.106,44.089,11.339,39.8l-8.77,4.366,8.77,4.366Zm12.365-4.313-8.636,4.388,8.74,4.388,8.636-4.388Zm30,4.313L53.707,39.8c-2.726,1.493-5.677,2.637-8.412,4.1-.1.055-.433.24-.356.34l8.768,4.29ZM1.484,45.484V57.356l9,4.578.126-7.217-.149-4.864Zm19.71,0-8.976,4.37-.165,3.3.141,8.785,9-4.578ZM31.747,61.935V50.062l-9-4.578V57.356Zm1.552,0,9-4.578V45.484l-9,4.578ZM43.852,45.484V57.356l9,4.578c0-3.182.006-6.367-.006-9.551,0-.316.15-.6.147-.909a9.42,9.42,0,0,1-.165-1.622Zm19.71,0-8.976,4.37-.019,4.082-.005,8,9-4.578Z" fill="#2e2e2e"/>
</svg>
