<svg xmlns="http://www.w3.org/2000/svg" width="27.273" height="30" viewBox="0 0 27.273 30">
  <path id="Path_41" data-name="Path 41" d="M18.364,2.727H7.734A1.7,1.7,0,0,0,6.063,4.1L4.973,9.545H2v2.727H4.876L6.747,28.491A1.7,1.7,0,0,0,8.44,30H22.833a1.7,1.7,0,0,0,1.693-1.509L26.4,12.273h2.876V9.545H26.3L25.21,4.1a1.7,1.7,0,0,0-1.672-1.37H21.091V0H18.364Zm5.155,6.818H7.754l.818-4.091H22.7Zm-15.9,2.727H23.652l-1.731,15H9.352Z" transform="translate(-2)" fill="#525253" stroke="#000" stroke-width="0"/>
</svg>
