<svg xmlns="http://www.w3.org/2000/svg" width="30" height="30" viewBox="0 0 30 30">
  <path id="Path_40" data-name="Path 40" d="M14.636,6.551a9.552,9.552,0,0,0-8.085,8.085H9.182v2.727H6.551a9.552,9.552,0,0,0,8.085,8.085V22.818h2.727v2.631a9.552,9.552,0,0,0,8.085-8.085H22.818V14.636h2.631a9.552,9.552,0,0,0-8.085-8.085V9.182H14.636ZM3.8,14.636A12.278,12.278,0,0,1,14.636,3.8V1h2.727V3.8A12.278,12.278,0,0,1,28.2,14.636H31v2.727H28.2A12.278,12.278,0,0,1,17.364,28.2V31H14.636V28.2A12.278,12.278,0,0,1,3.8,17.364H1V14.636ZM20.091,16A4.091,4.091,0,1,1,16,11.909,4.091,4.091,0,0,1,20.091,16Z" transform="translate(-1 -1)" fill="#525253"/>
</svg>
