<svg xmlns="http://www.w3.org/2000/svg" width="65" height="65.032" viewBox="0 0 65 65.032">
  <g id="Group_14" data-name="Group 14" transform="translate(-799.332 -969.73)">
    <path id="Path_14" data-name="Path 14" d="M20.175.071a22.2,22.2,0,0,1,24.117,20.6c1.1.22,2.219.294,3.322.527,17.883,3.782,23.518,26.791,9.547,38.65C44.511,70.582,24.62,63.749,21.205,47.6c-.233-1.1-.307-2.219-.527-3.322A22.218,22.218,0,0,1,1.226,14.842,22.386,22.386,0,0,1,20.175.071m-.154,2C2.8,3.528-4.277,25.836,8.739,37.282c2.486,2.186,8.685,5.472,12.01,5.015.333-.046.939-.78,1.547-.248.51.362.439,2.821.547,3.609,2.117,15.535,20.986,22.938,33,12.718C69.279,46.95,63.018,25.655,45.669,22.833c-.728-.118-2.776-.024-3.148-.547-.164-.23-.386-3.4-.522-4.1-2.013-10.4-11.55-17-21.977-16.115" transform="translate(799.332 969.731)" fill="#2e2e2e"/>
    <path id="Path_15" data-name="Path 15" d="M205.75,260.006a3.694,3.694,0,0,1-.83.341c-1.01.065-1.288-1.853.04-1.97.751-.066,1.13,1.085.79,1.628" transform="translate(626.689 751.137)" fill="#2e2e2e"/>
    <path id="Path_16" data-name="Path 16" d="M237.862,140.911a3.658,3.658,0,0,1-.695.323c-.868.12-1.618-1.745-.077-1.958.717-.1,1.195,1.037.772,1.635" transform="translate(599.5 851.904)" fill="#2e2e2e"/>
    <path id="Path_17" data-name="Path 17" d="M213.955,149.914a3.656,3.656,0,0,1-.695.323c-.9.127-1.558-1.752-.076-1.957.725-.1,1.189,1.044.771,1.634" transform="translate(619.711 844.286)" fill="#2e2e2e"/>
    <path id="Path_18" data-name="Path 18" d="M171.374,179.433a.92.92,0,1,1,1.408,1.179.92.92,0,0,1-1.408-1.179" transform="translate(654.526 818.239)" fill="#2e2e2e"/>
    <path id="Path_19" data-name="Path 19" d="M269.155,182.194a.922.922,0,1,1,.256,1.819c-1.167.112-1.268-1.608-.256-1.819" transform="translate(572.206 815.613)" fill="#2e2e2e"/>
    <path id="Path_20" data-name="Path 20" d="M244.8,227.952c-.765.943-2.209-.375-1.456-1.3s2.209.375,1.456,1.3" transform="translate(593.633 778.254)" fill="#2e2e2e"/>
    <path id="Path_21" data-name="Path 21" d="M191.211,162.193a.921.921,0,1,1,.256,1.818.921.921,0,0,1-.256-1.818" transform="translate(638.141 832.534)" fill="#2e2e2e"/>
    <path id="Path_22" data-name="Path 22" d="M156.16,200.991c-1.364-1.144.892-2.624,1.305-1.229.3,1-.692,1.744-1.305,1.229" transform="translate(667.582 801.205)" fill="#2e2e2e"/>
    <path id="Path_23" data-name="Path 23" d="M157.066,275.915c-1.169,1.231-2.549-1.379-.768-1.632a1.048,1.048,0,0,1,.768,1.632" transform="translate(667.821 737.684)" fill="#2e2e2e"/>
    <path id="Path_24" data-name="Path 24" d="M261.962,135.22c1.132-.22,1.57,1.706.254,1.824a.923.923,0,0,1-.254-1.824" transform="translate(578.322 855.345)" fill="#2e2e2e"/>
    <path id="Path_25" data-name="Path 25" d="M274.284,157.742c.819-.866,2.18.293,1.416,1.187-.915,1.071-2.144-.416-1.416-1.187" transform="translate(567.466 836.535)" fill="#2e2e2e"/>
    <path id="Path_26" data-name="Path 26" d="M259.012,205.261c1.125-.16,1.243,1.945-.17,1.955-.98-.517-1.034-1.783.17-1.955" transform="translate(580.966 796.081)" fill="#2e2e2e"/>
    <path id="Path_27" data-name="Path 27" d="M145.467,222.154c1.753,2.145-2.108,2.424-1.255.467a1.4,1.4,0,0,1,1.255-.467" transform="translate(677.429 781.813)" fill="#2e2e2e"/>
    <path id="Path_28" data-name="Path 28" d="M225.3,244.558c1.213-1.281,2.67,1.474.426,1.585-.487-.308-.92-1.063-.426-1.585" transform="translate(608.906 763.114)" fill="#2e2e2e"/>
    <path id="Path_29" data-name="Path 29" d="M181.64,268.526c1.045.011,1.208,2.017-.164,1.937-1.087-.064-1-1.949.164-1.937" transform="translate(646.445 742.55)" fill="#2e2e2e"/>
    <path id="Path_30" data-name="Path 30" d="M138.931,248.328c-.7.865-2.22-.243-1.415-1.185.891-1.042,2.111.326,1.415,1.185" transform="translate(683.183 760.958)" fill="#2e2e2e"/>
  </g>
</svg>
