<svg id="Group_3" data-name="Group 3" xmlns="http://www.w3.org/2000/svg" xmlns:xlink="http://www.w3.org/1999/xlink" width="300" height="41.114" viewBox="0 0 300 41.114">
  <defs>
    <clipPath id="clip-path">
      <rect id="Rectangle_4" data-name="Rectangle 4" width="300" height="41.114" fill="none"/>
    </clipPath>
  </defs>
  <path id="Path_1" data-name="Path 1" d="M0,27.9V46.032H2.893v-7.12h8.592v-2.27H2.893V30.207h8.891V27.9Z" transform="translate(0 -20.942)" fill="#fff"/>
  <g id="Group_2" data-name="Group 2">
    <g id="Group_1" data-name="Group 1" clip-path="url(#clip-path)">
      <path id="Path_2" data-name="Path 2" d="M87.549,37.54a5,5,0,0,0,1.341-1.178,4.7,4.7,0,0,0,.786-1.5,5.626,5.626,0,0,0,.256-1.69,5.488,5.488,0,0,0-.424-2.2,4.355,4.355,0,0,0-1.253-1.658A5.856,5.856,0,0,0,86.2,28.269a9.8,9.8,0,0,0-2.818-.368H76.463V46.032h2.893V38.575h3.492l4.576,7.457h3.267l-5.063-7.756a6.034,6.034,0,0,0,1.92-.736m-4.315-1.047H79.356V30.008h3.779a4.466,4.466,0,0,1,2.856.817A2.861,2.861,0,0,1,87.013,33.2a3.761,3.761,0,0,1-.218,1.3,2.712,2.712,0,0,1-.68,1.041,3.251,3.251,0,0,1-1.178.7,5.073,5.073,0,0,1-1.7.256" transform="translate(-57.394 -20.943)" fill="#fff"/>
      <path id="Path_3" data-name="Path 3" d="M164.419,37.877h8.941V35.67h-8.941V30.158h9.714V27.9H161.526V46.033h13.156V43.8H164.419Z" transform="translate(-121.242 -20.943)" fill="#fff"/>
      <path id="Path_4" data-name="Path 4" d="M246.682,37.877h8.941V35.67h-8.941V30.158H256.4V27.9H243.789V46.033h13.156V43.8H246.682Z" transform="translate(-182.989 -20.943)" fill="#fff"/>
      <path id="Path_5" data-name="Path 5" d="M328.945,27.9h-2.893V46.033h11.41V43.75h-8.517Z" transform="translate(-244.737 -20.943)" fill="#fff"/>
      <path id="Path_6" data-name="Path 6" d="M397.16,27.9l-6.846,18.131h2.93l1.883-5.1h7.457l1.846,5.1h2.905L400.527,27.9Zm-1.4,10.849,3.092-8.667,3.055,8.667Z" transform="translate(-292.972 -20.943)" fill="#fff"/>
      <path id="Path_7" data-name="Path 7" d="M497.37,39.373q0,1.521.1,3.542L487.008,27.9h-3.38V46.032h2.581V34.41q0-1.5-.075-3.292L496.46,46.032h3.479V27.9H497.37Z" transform="translate(-363.014 -20.943)" fill="#fff"/>
      <path id="Path_8" data-name="Path 8" d="M592.68,40.886a5.73,5.73,0,0,1-1.041,1.166,5.278,5.278,0,0,1-1.422.86,4.81,4.81,0,0,1-1.858.337,5.721,5.721,0,0,1-2.525-.524,4.907,4.907,0,0,1-1.8-1.471A6.528,6.528,0,0,1,582.966,39a10.921,10.921,0,0,1-.355-2.868,11.669,11.669,0,0,1,.324-2.856,6.071,6.071,0,0,1,1-2.189,4.567,4.567,0,0,1,1.746-1.4,5.977,5.977,0,0,1,2.55-.5,5.365,5.365,0,0,1,1.808.281,4.724,4.724,0,0,1,1.359.736,4.852,4.852,0,0,1,.973,1.029,7.389,7.389,0,0,1,.661,1.147l2.569-.935a10.035,10.035,0,0,0-1.01-1.7,6.586,6.586,0,0,0-1.472-1.446,7.255,7.255,0,0,0-2.082-1.01,9.559,9.559,0,0,0-2.856-.38,9.9,9.9,0,0,0-3.741.648,6.945,6.945,0,0,0-2.65,1.846,7.781,7.781,0,0,0-1.578,2.906,14.073,14.073,0,0,0,0,7.607,8.172,8.172,0,0,0,1.6,2.974,7.245,7.245,0,0,0,2.706,1.952,9.721,9.721,0,0,0,3.841.7,8.883,8.883,0,0,0,2.868-.417,7.316,7.316,0,0,0,2.114-1.1,7.215,7.215,0,0,0,1.509-1.559,13.182,13.182,0,0,0,1.066-1.783l-2.532-1.047a8.265,8.265,0,0,1-.7,1.266" transform="translate(-435.121 -20.192)" fill="#fff"/>
      <path id="Path_9" data-name="Path 9" d="M676.749,43.8V37.877h7.4l1-2.207h-8.4V30.158h9.714V27.9H673.856V46.033h6.6l1.01-2.232Z" transform="translate(-505.801 -20.943)" fill="#fff"/>
      <path id="Path_10" data-name="Path 10" d="M785.246,56.169a5.567,5.567,0,0,0-1.964-1.085,8.735,8.735,0,0,0-2.731-.387h-1.832l-.671,1.484h2.291a5.062,5.062,0,0,1,3.448,1.023,3.633,3.633,0,0,1,1.153,2.868,4.666,4.666,0,0,1-.268,1.609,3.438,3.438,0,0,1-.823,1.284,3.78,3.78,0,0,1-1.4.854,5.932,5.932,0,0,1-2.007.305h-4.477V60.79l-1.846,4.078V72.83h1.846V65.6h4.751a7.26,7.26,0,0,0,2.675-.455,5.585,5.585,0,0,0,1.914-1.21,4.886,4.886,0,0,0,1.141-1.758,6.213,6.213,0,0,0-.013-4.315,4.367,4.367,0,0,0-1.184-1.69" transform="translate(-581.056 -41.057)" fill="#fff"/>
      <rect id="Rectangle_1" data-name="Rectangle 1" width="1.846" height="18.132" transform="translate(213.488 13.641)" fill="#fff"/>
      <path id="Path_11" data-name="Path 11" d="M904.218,54.7h-2.033l-4.951,7.432L892.247,54.7h-2.033l5.961,8.592-6.485,9.54h2.021l5.524-8.255,5.487,8.255h2.02l-6.347-9.54Z" transform="translate(-667.807 -41.057)" fill="#fff"/>
      <path id="Path_12" data-name="Path 12" d="M1058.614,54.7h-1.846V72.829H1067.5V71.271h-8.891Z" transform="translate(-793.217 -41.057)" fill="#fff"/>
      <path id="Path_13" data-name="Path 13" d="M1137.318,64.2a4.326,4.326,0,0,0-1.066-.886,8.447,8.447,0,0,0-1.322-.629,14.846,14.846,0,0,0-1.472-.468l-1.521-.4q-.985-.237-1.87-.5a7.1,7.1,0,0,1-1.553-.648,3.207,3.207,0,0,1-1.06-.96,2.5,2.5,0,0,1-.393-1.446A3.323,3.323,0,0,1,1127.3,57a2.63,2.63,0,0,1,.748-1.023,3.665,3.665,0,0,1,1.366-.686,8.746,8.746,0,0,1,3.959-.044,4.357,4.357,0,0,1,1.34.58,3,3,0,0,1,.892.923,4.163,4.163,0,0,1,.5,1.26l1.833-.387a6.162,6.162,0,0,0-.717-1.74,4.054,4.054,0,0,0-1.235-1.259,5.821,5.821,0,0,0-1.851-.767,11.316,11.316,0,0,0-2.619-.262,10.637,10.637,0,0,0-2.488.274,6.036,6.036,0,0,0-1.989.848,4.009,4.009,0,0,0-1.322,1.471,4.563,4.563,0,0,0-.474,2.158,4.5,4.5,0,0,0,.237,1.521,3.681,3.681,0,0,0,.655,1.153,4.071,4.071,0,0,0,.973.835,8.479,8.479,0,0,0,1.2.611,11.231,11.231,0,0,0,1.341.462q.7.193,1.4.368.96.237,1.933.5a8.463,8.463,0,0,1,1.752.674,3.759,3.759,0,0,1,1.266,1.054,2.664,2.664,0,0,1,.486,1.652,3.322,3.322,0,0,1-.38,1.634,3.1,3.1,0,0,1-1.048,1.116,4.855,4.855,0,0,1-1.583.636,9.015,9.015,0,0,1-1.977.206,8.477,8.477,0,0,1-2.194-.249,4.8,4.8,0,0,1-1.559-.7,3.508,3.508,0,0,1-1-1.066,5.086,5.086,0,0,1-.549-1.347l-1.808.4a5.068,5.068,0,0,0,2.226,3.3,8.8,8.8,0,0,0,4.87,1.16,10.216,10.216,0,0,0,3.018-.4,6.282,6.282,0,0,0,2.132-1.091,4.412,4.412,0,0,0,1.266-1.627,4.955,4.955,0,0,0,.418-2.045,4.717,4.717,0,0,0-.268-1.677,4.038,4.038,0,0,0-.723-1.228" transform="translate(-843.967 -40.231)" fill="#fff"/>
      <rect id="Rectangle_2" data-name="Rectangle 2" width="44.551" height="1.277" transform="matrix(0.412, -0.911, 0.911, 0.412, 175.854, 40.588)" fill="#16c6d0"/>
      <rect id="Rectangle_3" data-name="Rectangle 3" width="1.372" height="1.372" transform="translate(298.628 30.401)" fill="#16c6d0"/>
    </g>
  </g>
  <rect id="Rectangle_5" data-name="Rectangle 5" width="11.959" height="1.534" transform="translate(243.509 13.641)" fill="#fff"/>
  <rect id="Rectangle_6" data-name="Rectangle 6" width="11.959" height="1.534" transform="translate(243.509 21.705)" fill="#fff"/>
  <rect id="Rectangle_7" data-name="Rectangle 7" width="11.959" height="1.534" transform="translate(243.509 30.239)" fill="#fff"/>
</svg>
